<svg width="33" height="41" viewBox="0 0 33 41" fill="none" xmlns="http://www.w3.org/2000/svg">
<path d="M30.4167 5.75H26.5833V1.91667C26.5833 1.40834 26.3814 0.920823 26.022 0.561379C25.6625 0.201934 25.175 0 24.6667 0C24.1583 0 23.6708 0.201934 23.3114 0.561379C22.9519 0.920823 22.75 1.40834 22.75 1.91667L22.818 5.75H18.9167C18.4083 5.75 17.9208 5.95193 17.5614 6.31138C17.2019 6.67082 17 7.15833 17 7.66667C17 8.175 17.2019 8.66251 17.5614 9.02195C17.9208 9.3814 18.4083 9.58333 18.9167 9.58333L22.818 9.51529L22.75 13.4167C22.75 13.925 22.9519 14.4125 23.3114 14.772C23.6708 15.1314 24.1583 15.3333 24.6667 15.3333C25.175 15.3333 25.6625 15.1314 26.022 14.772C26.3814 14.4125 26.5833 13.925 26.5833 13.4167V9.51529L30.4167 9.58333C30.925 9.58333 31.4125 9.3814 31.772 9.02195C32.1314 8.66251 32.3333 8.175 32.3333 7.66667C32.3333 7.15833 32.1314 6.67082 31.772 6.31138C31.4125 5.95193 30.925 5.75 30.4167 5.75Z" fill="#9E9E9E"/>
<rect x="0.5" y="11.5" width="29" height="29" rx="4.5" stroke="#9E9E9E"/>
<path d="M10.9515 19H6.99029C6.44337 19 6 19.4477 6 20V24C6 24.5523 6.44337 25 6.99029 25H10.9515C11.4984 25 11.9417 24.5523 11.9417 24V20C11.9417 19.4477 11.4984 19 10.9515 19Z" stroke="#9E9E9E" stroke-width="2" stroke-linecap="round" stroke-linejoin="round"/>
<path d="M6 31L7.98058 33L11.9417 29M15.9029 20H23.8252M15.9029 26H23.8252M15.9029 32H23.8252" stroke="#9E9E9E" stroke-width="2" stroke-linecap="round" stroke-linejoin="round"/>
</svg>
