<svg width="259" height="29" viewBox="0 0 259 29" fill="none" xmlns="http://www.w3.org/2000/svg">
<rect width="256" height="17" rx="8.5" fill="#D9D9D9"/>
<path d="M3 8.5C3 5.46243 5.46243 3 8.5 3H108V14H8.5C5.46244 14 3 11.5376 3 8.5V8.5Z" fill="#EC9494"/>
<path d="M13.5341 28.0497C13.2784 28.0497 13.06 27.9763 12.8789 27.8295C12.699 27.6816 12.5605 27.4679 12.4634 27.1886C12.3675 26.9092 12.3196 26.5736 12.3196 26.1818C12.3196 25.7912 12.3675 25.4568 12.4634 25.1786C12.5605 24.8993 12.6996 24.6856 12.8807 24.5376C13.063 24.3885 13.2808 24.3139 13.5341 24.3139C13.7874 24.3139 14.0046 24.3885 14.1857 24.5376C14.368 24.6856 14.5071 24.8993 14.603 25.1786C14.7 25.4568 14.7486 25.7912 14.7486 26.1818C14.7486 26.5736 14.7 26.9092 14.603 27.1886C14.5071 27.4679 14.3686 27.6816 14.1875 27.8295C14.0076 27.9763 13.7898 28.0497 13.5341 28.0497ZM13.5341 27.7514C13.8146 27.7514 14.0336 27.6147 14.1911 27.3413C14.3485 27.0666 14.4272 26.6802 14.4272 26.1818C14.4272 25.8504 14.3911 25.5675 14.3189 25.3331C14.2479 25.0975 14.1455 24.9176 14.0117 24.7933C13.8791 24.669 13.7199 24.6069 13.5341 24.6069C13.2559 24.6069 13.0375 24.7454 12.8789 25.0224C12.7203 25.2982 12.641 25.6847 12.641 26.1818C12.641 26.5133 12.6765 26.7962 12.7475 27.0305C12.8197 27.2649 12.9221 27.4437 13.0547 27.5668C13.1884 27.6899 13.3482 27.7514 13.5341 27.7514ZM17.3107 27.3253V27.1602C17.3107 27.024 17.3379 26.9015 17.3924 26.7926C17.4469 26.6825 17.5244 26.5955 17.625 26.5316C17.7256 26.4677 17.8452 26.4357 17.9837 26.4357C18.1233 26.4357 18.2429 26.4677 18.3423 26.5316C18.4418 26.5955 18.5181 26.6825 18.5714 26.7926C18.6246 26.9015 18.6513 27.024 18.6513 27.1602V27.3253C18.6513 27.4614 18.6241 27.5839 18.5696 27.6928C18.5163 27.8017 18.44 27.8887 18.3406 27.9538C18.2411 28.0178 18.1222 28.0497 17.9837 28.0497C17.8428 28.0497 17.7221 28.0178 17.6214 27.9538C17.522 27.8887 17.4451 27.8017 17.3906 27.6928C17.3374 27.5839 17.3107 27.4614 17.3107 27.3253ZM17.5895 27.1602V27.3253C17.5895 27.459 17.622 27.5733 17.6871 27.668C17.7534 27.7615 17.8523 27.8082 17.9837 27.8082C18.1115 27.8082 18.208 27.7615 18.2731 27.668C18.3382 27.5733 18.3707 27.459 18.3707 27.3253V27.1602C18.3707 27.0264 18.3388 26.9128 18.2749 26.8192C18.2109 26.7246 18.1139 26.6772 17.9837 26.6772C17.8546 26.6772 17.7564 26.7246 17.6889 26.8192C17.6226 26.9128 17.5895 27.0264 17.5895 27.1602ZM15.4783 25.2035V25.0384C15.4783 24.9022 15.5056 24.7797 15.56 24.6708C15.6145 24.5619 15.692 24.4755 15.7926 24.4116C15.8932 24.3465 16.0128 24.3139 16.1513 24.3139C16.291 24.3139 16.4105 24.3465 16.5099 24.4116C16.6094 24.4755 16.6857 24.5619 16.739 24.6708C16.7923 24.7797 16.8189 24.9022 16.8189 25.0384V25.2035C16.8189 25.3396 16.7917 25.4627 16.7372 25.5728C16.6839 25.6817 16.6076 25.7681 16.5082 25.832C16.4087 25.896 16.2898 25.9279 16.1513 25.9279C16.0104 25.9279 15.8897 25.896 15.7891 25.832C15.6896 25.7681 15.6127 25.6817 15.5582 25.5728C15.505 25.4627 15.4783 25.3396 15.4783 25.2035ZM15.7571 25.0384V25.2035C15.7571 25.3372 15.7897 25.4515 15.8548 25.5462C15.921 25.6397 16.0199 25.6864 16.1513 25.6864C16.2791 25.6864 16.3756 25.6397 16.4407 25.5462C16.5058 25.4515 16.5384 25.3372 16.5384 25.2035V25.0384C16.5384 24.9046 16.5064 24.791 16.4425 24.6974C16.3786 24.6027 16.2815 24.5554 16.1513 24.5554C16.0223 24.5554 15.924 24.6027 15.8565 24.6974C15.7902 24.791 15.7571 24.9046 15.7571 25.0384ZM15.6417 28L18.1399 24.3636H18.4542L15.956 28H15.6417Z" fill="black"/>
<path d="M57.4048 27V26.7567L58.5927 25.4215C58.7478 25.2463 58.8726 25.0966 58.9673 24.9723C59.062 24.848 59.1307 24.7332 59.1733 24.6278C59.2171 24.5225 59.239 24.413 59.239 24.2994C59.239 24.1609 59.2064 24.0401 59.1413 23.9371C59.0774 23.833 58.9892 23.7519 58.8768 23.6939C58.7643 23.6359 58.6377 23.6069 58.4968 23.6069C58.3477 23.6069 58.2169 23.6388 58.1044 23.7028C57.9931 23.7667 57.9067 23.8543 57.8452 23.9656C57.7836 24.0768 57.7528 24.2047 57.7528 24.3491H57.435C57.435 24.1478 57.4812 23.9697 57.5735 23.8146C57.667 23.6584 57.7943 23.5359 57.9553 23.4471C58.1174 23.3583 58.3009 23.3139 58.5057 23.3139C58.7081 23.3139 58.888 23.3577 59.0455 23.4453C59.2029 23.5317 59.3266 23.6495 59.4165 23.7987C59.5065 23.9478 59.5515 24.1147 59.5515 24.2994C59.5515 24.4331 59.5278 24.5627 59.4805 24.6882C59.4343 24.8137 59.3544 24.9534 59.2408 25.1072C59.1271 25.2611 58.9697 25.4493 58.7685 25.6719L57.8665 26.6786V26.7017H59.6651V27H57.4048ZM61.5858 27.0497C61.3302 27.0497 61.1118 26.9763 60.9307 26.8295C60.7507 26.6816 60.6122 26.4679 60.5152 26.1886C60.4193 25.9092 60.3714 25.5736 60.3714 25.1818C60.3714 24.7912 60.4193 24.4568 60.5152 24.1786C60.6122 23.8993 60.7513 23.6856 60.9324 23.5376C61.1147 23.3885 61.3325 23.3139 61.5858 23.3139C61.8392 23.3139 62.0564 23.3885 62.2375 23.5376C62.4198 23.6856 62.5589 23.8993 62.6547 24.1786C62.7518 24.4568 62.8003 24.7912 62.8003 25.1818C62.8003 25.5736 62.7518 25.9092 62.6547 26.1886C62.5589 26.4679 62.4204 26.6816 62.2393 26.8295C62.0593 26.9763 61.8415 27.0497 61.5858 27.0497ZM61.5858 26.7514C61.8664 26.7514 62.0854 26.6147 62.2428 26.3413C62.4002 26.0666 62.479 25.6802 62.479 25.1818C62.479 24.8504 62.4429 24.5675 62.3706 24.3331C62.2996 24.0975 62.1972 23.9176 62.0635 23.7933C61.9309 23.669 61.7717 23.6069 61.5858 23.6069C61.3077 23.6069 61.0893 23.7454 60.9307 24.0224C60.772 24.2982 60.6927 24.6847 60.6927 25.1818C60.6927 25.5133 60.7282 25.7962 60.7993 26.0305C60.8715 26.2649 60.9739 26.4437 61.1064 26.5668C61.2402 26.6899 61.4 26.7514 61.5858 26.7514ZM65.3625 26.3253V26.1602C65.3625 26.024 65.3897 25.9015 65.4442 25.7926C65.4986 25.6825 65.5761 25.5955 65.6768 25.5316C65.7774 25.4677 65.8969 25.4357 66.0354 25.4357C66.1751 25.4357 66.2947 25.4677 66.3941 25.5316C66.4935 25.5955 66.5699 25.6825 66.6231 25.7926C66.6764 25.9015 66.703 26.024 66.703 26.1602V26.3253C66.703 26.4614 66.6758 26.5839 66.6214 26.6928C66.5681 26.8017 66.4917 26.8887 66.3923 26.9538C66.2929 27.0178 66.1739 27.0497 66.0354 27.0497C65.8946 27.0497 65.7738 27.0178 65.6732 26.9538C65.5738 26.8887 65.4968 26.8017 65.4424 26.6928C65.3891 26.5839 65.3625 26.4614 65.3625 26.3253ZM65.6412 26.1602V26.3253C65.6412 26.459 65.6738 26.5733 65.7389 26.668C65.8052 26.7615 65.904 26.8082 66.0354 26.8082C66.1633 26.8082 66.2597 26.7615 66.3248 26.668C66.3899 26.5733 66.4225 26.459 66.4225 26.3253V26.1602C66.4225 26.0264 66.3905 25.9128 66.3266 25.8192C66.2627 25.7246 66.1656 25.6772 66.0354 25.6772C65.9064 25.6772 65.8081 25.7246 65.7407 25.8192C65.6744 25.9128 65.6412 26.0264 65.6412 26.1602ZM63.5301 24.2035V24.0384C63.5301 23.9022 63.5573 23.7797 63.6118 23.6708C63.6662 23.5619 63.7438 23.4755 63.8444 23.4116C63.945 23.3465 64.0645 23.3139 64.203 23.3139C64.3427 23.3139 64.4623 23.3465 64.5617 23.4116C64.6611 23.4755 64.7375 23.5619 64.7907 23.6708C64.844 23.7797 64.8706 23.9022 64.8706 24.0384V24.2035C64.8706 24.3396 64.8434 24.4627 64.789 24.5728C64.7357 24.6817 64.6594 24.7681 64.5599 24.832C64.4605 24.896 64.3415 24.9279 64.203 24.9279C64.0622 24.9279 63.9414 24.896 63.8408 24.832C63.7414 24.7681 63.6644 24.6817 63.61 24.5728C63.5567 24.4627 63.5301 24.3396 63.5301 24.2035ZM63.8089 24.0384V24.2035C63.8089 24.3372 63.8414 24.4515 63.9065 24.5462C63.9728 24.6397 64.0716 24.6864 64.203 24.6864C64.3309 24.6864 64.4273 24.6397 64.4925 24.5462C64.5576 24.4515 64.5901 24.3372 64.5901 24.2035V24.0384C64.5901 23.9046 64.5581 23.791 64.4942 23.6974C64.4303 23.6027 64.3332 23.5554 64.203 23.5554C64.074 23.5554 63.9758 23.6027 63.9083 23.6974C63.842 23.791 63.8089 23.9046 63.8089 24.0384ZM63.6934 27L66.1917 23.3636H66.5059L64.0077 27H63.6934Z" fill="black"/>
<path d="M105.318 26.2188V25.9489L106.939 23.3636H107.138V23.8164H106.99L105.689 25.8974V25.9205H107.814V26.2188H105.318ZM107.015 27V26.1335V26.0092V23.3636H107.331V27H107.015ZM109.664 27.0497C109.408 27.0497 109.19 26.9763 109.009 26.8295C108.829 26.6816 108.69 26.4679 108.593 26.1886C108.497 25.9092 108.449 25.5736 108.449 25.1818C108.449 24.7912 108.497 24.4568 108.593 24.1786C108.69 23.8993 108.829 23.6856 109.011 23.5376C109.193 23.3885 109.411 23.3139 109.664 23.3139C109.917 23.3139 110.134 23.3885 110.316 23.5376C110.498 23.6856 110.637 23.8993 110.733 24.1786C110.83 24.4568 110.878 24.7912 110.878 25.1818C110.878 25.5736 110.83 25.9092 110.733 26.1886C110.637 26.4679 110.498 26.6816 110.317 26.8295C110.137 26.9763 109.92 27.0497 109.664 27.0497ZM109.664 26.7514C109.945 26.7514 110.164 26.6147 110.321 26.3413C110.478 26.0666 110.557 25.6802 110.557 25.1818C110.557 24.8504 110.521 24.5675 110.449 24.3331C110.378 24.0975 110.275 23.9176 110.142 23.7933C110.009 23.669 109.85 23.6069 109.664 23.6069C109.386 23.6069 109.167 23.7454 109.009 24.0224C108.85 24.2982 108.771 24.6847 108.771 25.1818C108.771 25.5133 108.806 25.7962 108.877 26.0305C108.95 26.2649 109.052 26.4437 109.185 26.5668C109.318 26.6899 109.478 26.7514 109.664 26.7514ZM113.441 26.3253V26.1602C113.441 26.024 113.468 25.9015 113.522 25.7926C113.577 25.6825 113.654 25.5955 113.755 25.5316C113.855 25.4677 113.975 25.4357 114.114 25.4357C114.253 25.4357 114.373 25.4677 114.472 25.5316C114.572 25.5955 114.648 25.6825 114.701 25.7926C114.755 25.9015 114.781 26.024 114.781 26.1602V26.3253C114.781 26.4614 114.754 26.5839 114.699 26.6928C114.646 26.8017 114.57 26.8887 114.47 26.9538C114.371 27.0178 114.252 27.0497 114.114 27.0497C113.973 27.0497 113.852 27.0178 113.751 26.9538C113.652 26.8887 113.575 26.8017 113.521 26.6928C113.467 26.5839 113.441 26.4614 113.441 26.3253ZM113.719 26.1602V26.3253C113.719 26.459 113.752 26.5733 113.817 26.668C113.883 26.7615 113.982 26.8082 114.114 26.8082C114.241 26.8082 114.338 26.7615 114.403 26.668C114.468 26.5733 114.501 26.459 114.501 26.3253V26.1602C114.501 26.0264 114.469 25.9128 114.405 25.8192C114.341 25.7246 114.244 25.6772 114.114 25.6772C113.985 25.6772 113.886 25.7246 113.819 25.8192C113.753 25.9128 113.719 26.0264 113.719 26.1602ZM111.608 24.2035V24.0384C111.608 23.9022 111.635 23.7797 111.69 23.6708C111.744 23.5619 111.822 23.4755 111.922 23.4116C112.023 23.3465 112.143 23.3139 112.281 23.3139C112.421 23.3139 112.54 23.3465 112.64 23.4116C112.739 23.4755 112.816 23.5619 112.869 23.6708C112.922 23.7797 112.949 23.9022 112.949 24.0384V24.2035C112.949 24.3396 112.922 24.4627 112.867 24.5728C112.814 24.6817 112.737 24.7681 112.638 24.832C112.539 24.896 112.42 24.9279 112.281 24.9279C112.14 24.9279 112.02 24.896 111.919 24.832C111.82 24.7681 111.743 24.6817 111.688 24.5728C111.635 24.4627 111.608 24.3396 111.608 24.2035ZM111.887 24.0384V24.2035C111.887 24.3372 111.92 24.4515 111.985 24.5462C112.051 24.6397 112.15 24.6864 112.281 24.6864C112.409 24.6864 112.505 24.6397 112.571 24.5462C112.636 24.4515 112.668 24.3372 112.668 24.2035V24.0384C112.668 23.9046 112.636 23.791 112.572 23.6974C112.508 23.6027 112.411 23.5554 112.281 23.5554C112.152 23.5554 112.054 23.6027 111.986 23.6974C111.92 23.791 111.887 23.9046 111.887 24.0384ZM111.772 27L114.27 23.3636H114.584L112.086 27H111.772Z" fill="black"/>
<path d="M153.55 28.0497C153.4 28.0485 153.253 28.0183 153.11 27.9592C152.967 27.8988 152.837 27.8023 152.723 27.6697C152.608 27.536 152.517 27.3596 152.449 27.1406C152.382 26.9216 152.348 26.6523 152.348 26.3327C152.348 26.0368 152.374 25.7657 152.426 25.5195C152.478 25.2733 152.556 25.0603 152.661 24.8803C152.765 24.7004 152.895 24.5613 153.051 24.4631C153.207 24.3636 153.39 24.3139 153.6 24.3139C153.796 24.3139 153.97 24.3548 154.12 24.4364C154.27 24.5169 154.392 24.6294 154.486 24.7738C154.579 24.9182 154.638 25.0845 154.662 25.2727H154.335C154.302 25.081 154.223 24.9229 154.099 24.7987C153.974 24.6744 153.808 24.6122 153.6 24.6122C153.301 24.6122 153.071 24.7507 152.907 25.0277C152.744 25.3035 152.662 25.6953 152.661 26.2031H152.684C152.742 26.0954 152.816 26.0025 152.907 25.9244C153 25.8451 153.104 25.7835 153.222 25.7397C153.339 25.6947 153.462 25.6722 153.591 25.6722C153.793 25.6722 153.979 25.7237 154.147 25.8267C154.315 25.9285 154.449 26.0688 154.55 26.2475C154.65 26.4251 154.701 26.6281 154.701 26.8565C154.701 27.0732 154.653 27.2726 154.557 27.4549C154.462 27.6372 154.328 27.7822 154.156 27.8899C153.984 27.9976 153.782 28.0509 153.55 28.0497ZM153.55 27.7514C153.709 27.7514 153.85 27.7112 153.974 27.6307C154.1 27.5502 154.199 27.4425 154.271 27.3075C154.343 27.1714 154.379 27.0211 154.379 26.8565C154.379 26.692 154.343 26.5429 154.271 26.4091C154.199 26.2753 154.1 26.1688 153.974 26.0895C153.85 26.0102 153.709 25.9705 153.55 25.9705C153.429 25.9705 153.317 25.9954 153.213 26.0451C153.109 26.0936 153.018 26.1605 152.941 26.2457C152.865 26.3298 152.807 26.4263 152.767 26.5352C152.728 26.6441 152.713 26.7583 152.723 26.8778C152.736 27.0447 152.779 27.1945 152.852 27.3271C152.927 27.4585 153.024 27.562 153.143 27.6378C153.264 27.7135 153.4 27.7514 153.55 27.7514ZM156.581 28.0497C156.325 28.0497 156.107 27.9763 155.926 27.8295C155.746 27.6816 155.607 27.4679 155.51 27.1886C155.414 26.9092 155.366 26.5736 155.366 26.1818C155.366 25.7912 155.414 25.4568 155.51 25.1786C155.607 24.8993 155.746 24.6856 155.928 24.5376C156.11 24.3885 156.328 24.3139 156.581 24.3139C156.834 24.3139 157.051 24.3885 157.233 24.5376C157.415 24.6856 157.554 24.8993 157.65 25.1786C157.747 25.4568 157.795 25.7912 157.795 26.1818C157.795 26.5736 157.747 26.9092 157.65 27.1886C157.554 27.4679 157.415 27.6816 157.234 27.8295C157.054 27.9763 156.837 28.0497 156.581 28.0497ZM156.581 27.7514C156.862 27.7514 157.08 27.6147 157.238 27.3413C157.395 27.0666 157.474 26.6802 157.474 26.1818C157.474 25.8504 157.438 25.5675 157.366 25.3331C157.295 25.0975 157.192 24.9176 157.059 24.7933C156.926 24.669 156.767 24.6069 156.581 24.6069C156.303 24.6069 156.084 24.7454 155.926 25.0224C155.767 25.2982 155.688 25.6847 155.688 26.1818C155.688 26.5133 155.723 26.7962 155.794 27.0305C155.867 27.2649 155.969 27.4437 156.102 27.5668C156.235 27.6899 156.395 27.7514 156.581 27.7514ZM160.358 27.3253V27.1602C160.358 27.024 160.385 26.9015 160.439 26.7926C160.494 26.6825 160.571 26.5955 160.672 26.5316C160.772 26.4677 160.892 26.4357 161.031 26.4357C161.17 26.4357 161.29 26.4677 161.389 26.5316C161.489 26.5955 161.565 26.6825 161.618 26.7926C161.672 26.9015 161.698 27.024 161.698 27.1602V27.3253C161.698 27.4614 161.671 27.5839 161.616 27.6928C161.563 27.8017 161.487 27.8887 161.387 27.9538C161.288 28.0178 161.169 28.0497 161.031 28.0497C160.89 28.0497 160.769 28.0178 160.668 27.9538C160.569 27.8887 160.492 27.8017 160.438 27.6928C160.384 27.5839 160.358 27.4614 160.358 27.3253ZM160.636 27.1602V27.3253C160.636 27.459 160.669 27.5733 160.734 27.668C160.8 27.7615 160.899 27.8082 161.031 27.8082C161.158 27.8082 161.255 27.7615 161.32 27.668C161.385 27.5733 161.418 27.459 161.418 27.3253V27.1602C161.418 27.0264 161.386 26.9128 161.322 26.8192C161.258 26.7246 161.161 26.6772 161.031 26.6772C160.902 26.6772 160.803 26.7246 160.736 26.8192C160.67 26.9128 160.636 27.0264 160.636 27.1602ZM158.525 25.2035V25.0384C158.525 24.9022 158.552 24.7797 158.607 24.6708C158.661 24.5619 158.739 24.4755 158.839 24.4116C158.94 24.3465 159.06 24.3139 159.198 24.3139C159.338 24.3139 159.457 24.3465 159.557 24.4116C159.656 24.4755 159.733 24.5619 159.786 24.6708C159.839 24.7797 159.866 24.9022 159.866 25.0384V25.2035C159.866 25.3396 159.839 25.4627 159.784 25.5728C159.731 25.6817 159.654 25.7681 159.555 25.832C159.456 25.896 159.337 25.9279 159.198 25.9279C159.057 25.9279 158.937 25.896 158.836 25.832C158.737 25.7681 158.66 25.6817 158.605 25.5728C158.552 25.4627 158.525 25.3396 158.525 25.2035ZM158.804 25.0384V25.2035C158.804 25.3372 158.837 25.4515 158.902 25.5462C158.968 25.6397 159.067 25.6864 159.198 25.6864C159.326 25.6864 159.422 25.6397 159.488 25.5462C159.553 25.4515 159.585 25.3372 159.585 25.2035V25.0384C159.585 24.9046 159.553 24.791 159.489 24.6974C159.425 24.6027 159.328 24.5554 159.198 24.5554C159.069 24.5554 158.971 24.6027 158.903 24.6974C158.837 24.791 158.804 24.9046 158.804 25.0384ZM158.689 28L161.187 24.3636H161.501L159.003 28H158.689Z" fill="black"/>
<path d="M202.529 28.0497C202.297 28.0497 202.09 28.0059 201.909 27.9183C201.728 27.8307 201.586 27.7112 201.483 27.5597C201.38 27.407 201.328 27.2347 201.328 27.043C201.328 26.8926 201.36 26.7524 201.423 26.6222C201.485 26.4908 201.572 26.3807 201.682 26.2919C201.792 26.2019 201.916 26.1433 202.053 26.1161V26.0966C201.874 26.0445 201.73 25.9421 201.621 25.7894C201.513 25.6355 201.459 25.4609 201.46 25.2656C201.459 25.0845 201.505 24.9223 201.598 24.7791C201.692 24.6359 201.819 24.5228 201.98 24.44C202.142 24.3559 202.325 24.3139 202.529 24.3139C202.731 24.3139 202.913 24.3559 203.074 24.44C203.235 24.5228 203.362 24.6359 203.456 24.7791C203.55 24.9223 203.598 25.0845 203.599 25.2656C203.598 25.4598 203.543 25.6344 203.434 25.7894C203.325 25.9433 203.182 26.0457 203.005 26.0966V26.1161C203.142 26.1422 203.265 26.2002 203.374 26.2901C203.483 26.3801 203.569 26.4908 203.633 26.6222C203.697 26.7524 203.729 26.8926 203.729 27.043C203.729 27.2347 203.677 27.407 203.573 27.5597C203.47 27.7112 203.328 27.8307 203.147 27.9183C202.967 28.0059 202.761 28.0497 202.529 28.0497ZM202.529 27.7514C202.702 27.7514 202.853 27.7206 202.983 27.6591C203.115 27.5964 203.217 27.5105 203.29 27.4016C203.365 27.2927 203.402 27.1679 203.402 27.027C203.402 26.8814 203.364 26.7518 203.287 26.6381C203.21 26.5233 203.106 26.4328 202.974 26.3665C202.843 26.299 202.694 26.2653 202.529 26.2653C202.363 26.2653 202.214 26.299 202.081 26.3665C201.95 26.4328 201.846 26.5233 201.769 26.6381C201.693 26.7518 201.655 26.8814 201.655 27.027C201.655 27.1679 201.691 27.2927 201.763 27.4016C201.837 27.5105 201.939 27.5964 202.071 27.6591C202.203 27.7206 202.356 27.7514 202.529 27.7514ZM202.529 25.9812C202.671 25.9812 202.798 25.951 202.911 25.8906C203.023 25.8303 203.112 25.748 203.177 25.6438C203.243 25.5385 203.277 25.4189 203.278 25.2852C203.277 25.1526 203.244 25.0354 203.179 24.9336C203.114 24.8306 203.025 24.7507 202.912 24.6939C202.801 24.6359 202.673 24.6069 202.529 24.6069C202.384 24.6069 202.255 24.6359 202.142 24.6939C202.029 24.7507 201.94 24.8306 201.875 24.9336C201.811 25.0354 201.78 25.1526 201.781 25.2852C201.78 25.4189 201.812 25.5385 201.877 25.6438C201.943 25.748 202.033 25.8303 202.145 25.8906C202.259 25.951 202.387 25.9812 202.529 25.9812ZM205.596 28.0497C205.34 28.0497 205.122 27.9763 204.94 27.8295C204.761 27.6816 204.622 27.4679 204.525 27.1886C204.429 26.9092 204.381 26.5736 204.381 26.1818C204.381 25.7912 204.429 25.4568 204.525 25.1786C204.622 24.8993 204.761 24.6856 204.942 24.5376C205.124 24.3885 205.342 24.3139 205.596 24.3139C205.849 24.3139 206.066 24.3885 206.247 24.5376C206.43 24.6856 206.569 24.8993 206.665 25.1786C206.762 25.4568 206.81 25.7912 206.81 26.1818C206.81 26.5736 206.762 26.9092 206.665 27.1886C206.569 27.4679 206.43 27.6816 206.249 27.8295C206.069 27.9763 205.851 28.0497 205.596 28.0497ZM205.596 27.7514C205.876 27.7514 206.095 27.6147 206.253 27.3413C206.41 27.0666 206.489 26.6802 206.489 26.1818C206.489 25.8504 206.453 25.5675 206.38 25.3331C206.309 25.0975 206.207 24.9176 206.073 24.7933C205.941 24.669 205.781 24.6069 205.596 24.6069C205.317 24.6069 205.099 24.7454 204.94 25.0224C204.782 25.2982 204.703 25.6847 204.703 26.1818C204.703 26.5133 204.738 26.7962 204.809 27.0305C204.881 27.2649 204.984 27.4437 205.116 27.5668C205.25 27.6899 205.41 27.7514 205.596 27.7514ZM209.372 27.3253V27.1602C209.372 27.024 209.399 26.9015 209.454 26.7926C209.508 26.6825 209.586 26.5955 209.687 26.5316C209.787 26.4677 209.907 26.4357 210.045 26.4357C210.185 26.4357 210.304 26.4677 210.404 26.5316C210.503 26.5955 210.58 26.6825 210.633 26.7926C210.686 26.9015 210.713 27.024 210.713 27.1602V27.3253C210.713 27.4614 210.686 27.5839 210.631 27.6928C210.578 27.8017 210.502 27.8887 210.402 27.9538C210.303 28.0178 210.184 28.0497 210.045 28.0497C209.904 28.0497 209.784 28.0178 209.683 27.9538C209.584 27.8887 209.507 27.8017 209.452 27.6928C209.399 27.5839 209.372 27.4614 209.372 27.3253ZM209.651 27.1602V27.3253C209.651 27.459 209.684 27.5733 209.749 27.668C209.815 27.7615 209.914 27.8082 210.045 27.8082C210.173 27.8082 210.27 27.7615 210.335 27.668C210.4 27.5733 210.432 27.459 210.432 27.3253V27.1602C210.432 27.0264 210.4 26.9128 210.336 26.8192C210.272 26.7246 210.175 26.6772 210.045 26.6772C209.916 26.6772 209.818 26.7246 209.75 26.8192C209.684 26.9128 209.651 27.0264 209.651 27.1602ZM207.54 25.2035V25.0384C207.54 24.9022 207.567 24.7797 207.622 24.6708C207.676 24.5619 207.754 24.4755 207.854 24.4116C207.955 24.3465 208.074 24.3139 208.213 24.3139C208.352 24.3139 208.472 24.3465 208.571 24.4116C208.671 24.4755 208.747 24.5619 208.801 24.6708C208.854 24.7797 208.88 24.9022 208.88 25.0384V25.2035C208.88 25.3396 208.853 25.4627 208.799 25.5728C208.745 25.6817 208.669 25.7681 208.57 25.832C208.47 25.896 208.351 25.9279 208.213 25.9279C208.072 25.9279 207.951 25.896 207.851 25.832C207.751 25.7681 207.674 25.6817 207.62 25.5728C207.566 25.4627 207.54 25.3396 207.54 25.2035ZM207.819 25.0384V25.2035C207.819 25.3372 207.851 25.4515 207.916 25.5462C207.983 25.6397 208.081 25.6864 208.213 25.6864C208.341 25.6864 208.437 25.6397 208.502 25.5462C208.567 25.4515 208.6 25.3372 208.6 25.2035V25.0384C208.6 24.9046 208.568 24.791 208.504 24.6974C208.44 24.6027 208.343 24.5554 208.213 24.5554C208.084 24.5554 207.986 24.6027 207.918 24.6974C207.852 24.791 207.819 24.9046 207.819 25.0384ZM207.703 28L210.201 24.3636H210.516L208.017 28H207.703Z" fill="black"/>
<path d="M246.527 24.3636V28H246.195V24.7116H246.174L245.321 25.2781V24.9336L246.181 24.3636H246.527ZM248.761 28.0497C248.505 28.0497 248.287 27.9763 248.105 27.8295C247.926 27.6816 247.787 27.4679 247.69 27.1886C247.594 26.9092 247.546 26.5736 247.546 26.1818C247.546 25.7912 247.594 25.4568 247.69 25.1786C247.787 24.8993 247.926 24.6856 248.107 24.5376C248.29 24.3885 248.507 24.3139 248.761 24.3139C249.014 24.3139 249.231 24.3885 249.412 24.5376C249.595 24.6856 249.734 24.8993 249.83 25.1786C249.927 25.4568 249.975 25.7912 249.975 26.1818C249.975 26.5736 249.927 26.9092 249.83 27.1886C249.734 27.4679 249.595 27.6816 249.414 27.8295C249.234 27.9763 249.016 28.0497 248.761 28.0497ZM248.761 27.7514C249.041 27.7514 249.26 27.6147 249.418 27.3413C249.575 27.0666 249.654 26.6802 249.654 26.1818C249.654 25.8504 249.618 25.5675 249.545 25.3331C249.474 25.0975 249.372 24.9176 249.238 24.7933C249.106 24.669 248.946 24.6069 248.761 24.6069C248.482 24.6069 248.264 24.7454 248.105 25.0224C247.947 25.2982 247.868 25.6847 247.868 26.1818C247.868 26.5133 247.903 26.7962 247.974 27.0305C248.046 27.2649 248.149 27.4437 248.281 27.5668C248.415 27.6899 248.575 27.7514 248.761 27.7514ZM251.827 28.0497C251.571 28.0497 251.353 27.9763 251.172 27.8295C250.992 27.6816 250.853 27.4679 250.756 27.1886C250.661 26.9092 250.613 26.5736 250.613 26.1818C250.613 25.7912 250.661 25.4568 250.756 25.1786C250.853 24.8993 250.993 24.6856 251.174 24.5376C251.356 24.3885 251.574 24.3139 251.827 24.3139C252.08 24.3139 252.298 24.3885 252.479 24.5376C252.661 24.6856 252.8 24.8993 252.896 25.1786C252.993 25.4568 253.042 25.7912 253.042 26.1818C253.042 26.5736 252.993 26.9092 252.896 27.1886C252.8 27.4679 252.662 27.6816 252.48 27.8295C252.301 27.9763 252.083 28.0497 251.827 28.0497ZM251.827 27.7514C252.108 27.7514 252.327 27.6147 252.484 27.3413C252.641 27.0666 252.72 26.6802 252.72 26.1818C252.72 25.8504 252.684 25.5675 252.612 25.3331C252.541 25.0975 252.438 24.9176 252.305 24.7933C252.172 24.669 252.013 24.6069 251.827 24.6069C251.549 24.6069 251.33 24.7454 251.172 25.0224C251.013 25.2982 250.934 25.6847 250.934 26.1818C250.934 26.5133 250.969 26.7962 251.04 27.0305C251.113 27.2649 251.215 27.4437 251.348 27.5668C251.481 27.6899 251.641 27.7514 251.827 27.7514ZM255.604 27.3253V27.1602C255.604 27.024 255.631 26.9015 255.685 26.7926C255.74 26.6825 255.817 26.5955 255.918 26.5316C256.019 26.4677 256.138 26.4357 256.277 26.4357C256.416 26.4357 256.536 26.4677 256.635 26.5316C256.735 26.5955 256.811 26.6825 256.864 26.7926C256.918 26.9015 256.944 27.024 256.944 27.1602V27.3253C256.944 27.4614 256.917 27.5839 256.863 27.6928C256.809 27.8017 256.733 27.8887 256.634 27.9538C256.534 28.0178 256.415 28.0497 256.277 28.0497C256.136 28.0497 256.015 28.0178 255.914 27.9538C255.815 27.8887 255.738 27.8017 255.684 27.6928C255.63 27.5839 255.604 27.4614 255.604 27.3253ZM255.882 27.1602V27.3253C255.882 27.459 255.915 27.5733 255.98 27.668C256.046 27.7615 256.145 27.8082 256.277 27.8082C256.404 27.8082 256.501 27.7615 256.566 27.668C256.631 27.5733 256.664 27.459 256.664 27.3253V27.1602C256.664 27.0264 256.632 26.9128 256.568 26.8192C256.504 26.7246 256.407 26.6772 256.277 26.6772C256.148 26.6772 256.049 26.7246 255.982 26.8192C255.916 26.9128 255.882 27.0264 255.882 27.1602ZM253.771 25.2035V25.0384C253.771 24.9022 253.799 24.7797 253.853 24.6708C253.907 24.5619 253.985 24.4755 254.086 24.4116C254.186 24.3465 254.306 24.3139 254.444 24.3139C254.584 24.3139 254.703 24.3465 254.803 24.4116C254.902 24.4755 254.979 24.5619 255.032 24.6708C255.085 24.7797 255.112 24.9022 255.112 25.0384V25.2035C255.112 25.3396 255.085 25.4627 255.03 25.5728C254.977 25.6817 254.901 25.7681 254.801 25.832C254.702 25.896 254.583 25.9279 254.444 25.9279C254.303 25.9279 254.183 25.896 254.082 25.832C253.983 25.7681 253.906 25.6817 253.851 25.5728C253.798 25.4627 253.771 25.3396 253.771 25.2035ZM254.05 25.0384V25.2035C254.05 25.3372 254.083 25.4515 254.148 25.5462C254.214 25.6397 254.313 25.6864 254.444 25.6864C254.572 25.6864 254.669 25.6397 254.734 25.5462C254.799 25.4515 254.831 25.3372 254.831 25.2035V25.0384C254.831 24.9046 254.799 24.791 254.735 24.6974C254.672 24.6027 254.574 24.5554 254.444 24.5554C254.315 24.5554 254.217 24.6027 254.15 24.6974C254.083 24.791 254.05 24.9046 254.05 25.0384ZM253.935 28L256.433 24.3636H256.747L254.249 28H253.935Z" fill="black"/>
<path d="M108.5 15L107.557 14.0649C104.21 10.7564 102 8.5673 102 5.89646C102 3.70736 103.573 2 105.575 2C106.706 2 107.791 2.57384 108.5 3.47357C109.208 2.57384 110.294 2 111.425 2C113.427 2 115 3.70736 115 5.89646C115 8.5673 112.79 10.7564 109.442 14.0649L108.5 15Z" fill="#D97474"/>
</svg>
