<svg width="21" height="27" viewBox="0 0 21 27" fill="none" xmlns="http://www.w3.org/2000/svg">
<path d="M3.36382 5.96047e-07C3.8057 -0.000349152 4.24332 0.066201 4.65154 0.195822C5.05975 0.325444 5.43052 0.51558 5.74255 0.755318L20.0149 11.6933C20.6457 12.1767 21 12.8323 21 13.5158C21 14.1994 20.6457 14.855 20.0149 15.3384L5.74255 26.2764C5.10799 26.7459 4.2581 27.0058 3.37593 26.9999C2.49376 26.994 1.64989 26.7229 1.02608 26.245C0.402263 25.767 0.0484201 25.1204 0.0407543 24.4445C0.0330885 23.7686 0.372213 23.1174 0.98509 22.6312L12.8787 13.5158L0.98509 4.40045C0.514696 4.03992 0.194371 3.58064 0.0646095 3.08065C-0.0651524 2.58067 0.0014765 2.06242 0.256071 1.59144C0.510666 1.12047 0.941796 0.717895 1.49496 0.434626C2.04812 0.151357 2.69848 0.000109445 3.36382 5.96047e-07Z" fill="#CCCCCC"/>
</svg>
