<svg width="21" height="27" viewBox="0 0 21 27" fill="none" xmlns="http://www.w3.org/2000/svg">
<path d="M17.6362 27C17.1943 27.0003 16.7567 26.9338 16.3485 26.8042C15.9402 26.6746 15.5695 26.4844 15.2575 26.2447L0.985091 15.3067C0.354338 14.8233 0 14.1677 0 13.4842C0 12.8006 0.354338 12.145 0.985091 11.6616L15.2575 0.723643C15.892 0.254061 16.7419 -0.00577605 17.6241 9.74503e-05C18.5062 0.00597095 19.3501 0.277085 19.9739 0.755045C20.5977 1.23301 20.9516 1.87957 20.9592 2.55548C20.9669 3.2314 20.6278 3.88257 20.0149 4.36877L8.12127 13.4842L20.0149 22.5996C20.4853 22.9601 20.8056 23.4194 20.9354 23.9193C21.0652 24.4193 20.9985 24.9376 20.7439 25.4086C20.4893 25.8795 20.0582 26.2821 19.505 26.5654C18.9519 26.8486 18.3015 26.9999 17.6362 27Z" fill="#CCCCCC"/>
</svg>
