<svg width="16" height="16" viewBox="0 0 16 16" fill="none" xmlns="http://www.w3.org/2000/svg">
<path d="M8 0C8.27675 0 8.54216 0.109937 8.73785 0.305628C8.93354 0.501318 9.04348 0.766731 9.04348 1.04348V6.95652H14.9565C15.2333 6.95652 15.4987 7.06646 15.6944 7.26215C15.8901 7.45784 16 7.72325 16 8C16 8.27675 15.8901 8.54216 15.6944 8.73785C15.4987 8.93354 15.2333 9.04348 14.9565 9.04348H9.04348V14.9565C9.04348 15.2333 8.93354 15.4987 8.73785 15.6944C8.54216 15.8901 8.27675 16 8 16C7.72325 16 7.45784 15.8901 7.26215 15.6944C7.06646 15.4987 6.95652 15.2333 6.95652 14.9565V9.04348H1.04348C0.766731 9.04348 0.501318 8.93354 0.305628 8.73785C0.109937 8.54216 0 8.27675 0 8C0 7.72325 0.109937 7.45784 0.305628 7.26215C0.501318 7.06646 0.766731 6.95652 1.04348 6.95652H6.95652V1.04348C6.95652 0.766731 7.06646 0.501318 7.26215 0.305628C7.45784 0.109937 7.72325 0 8 0Z" fill="#756C6C"/>
</svg>
