<svg width="256" height="28" viewBox="0 0 256 28" fill="none" xmlns="http://www.w3.org/2000/svg">
<rect width="256" height="17" rx="8.5" fill="#D9D9D9"/>
<path d="M12.4545 26.0795C12.0455 26.0795 11.696 25.9621 11.4062 25.7273C11.1184 25.4905 10.8968 25.1487 10.7415 24.7017C10.5881 24.2547 10.5114 23.7178 10.5114 23.0909C10.5114 22.4659 10.5881 21.9309 10.7415 21.4858C10.8968 21.0388 11.1193 20.697 11.4091 20.4602C11.7008 20.2216 12.0492 20.1023 12.4545 20.1023C12.8598 20.1023 13.2074 20.2216 13.4972 20.4602C13.7888 20.697 14.0114 21.0388 14.1648 21.4858C14.3201 21.9309 14.3977 22.4659 14.3977 23.0909C14.3977 23.7178 14.3201 24.2547 14.1648 24.7017C14.0114 25.1487 13.7898 25.4905 13.5 25.7273C13.2121 25.9621 12.8636 26.0795 12.4545 26.0795ZM12.4545 25.6023C12.9034 25.6023 13.2538 25.3835 13.5057 24.946C13.7576 24.5066 13.8835 23.8883 13.8835 23.0909C13.8835 22.5606 13.8258 22.108 13.7102 21.733C13.5966 21.3561 13.4328 21.0682 13.2188 20.8693C13.0066 20.6705 12.7519 20.571 12.4545 20.571C12.0095 20.571 11.66 20.7926 11.4062 21.2358C11.1525 21.6771 11.0256 22.2955 11.0256 23.0909C11.0256 23.6212 11.0824 24.0739 11.196 24.4489C11.3116 24.8239 11.4754 25.1098 11.6875 25.3068C11.9015 25.5038 12.1572 25.6023 12.4545 25.6023ZM18.4972 24.9205V24.6562C18.4972 24.4384 18.5407 24.2424 18.6278 24.0682C18.715 23.892 18.839 23.7528 19 23.6506C19.161 23.5483 19.3523 23.4972 19.5739 23.4972C19.7973 23.4972 19.9886 23.5483 20.1477 23.6506C20.3068 23.7528 20.429 23.892 20.5142 24.0682C20.5994 24.2424 20.642 24.4384 20.642 24.6562V24.9205C20.642 25.1383 20.5985 25.3343 20.5114 25.5085C20.4261 25.6828 20.304 25.822 20.1449 25.9261C19.9858 26.0284 19.7955 26.0795 19.5739 26.0795C19.3485 26.0795 19.1553 26.0284 18.9943 25.9261C18.8352 25.822 18.7121 25.6828 18.625 25.5085C18.5398 25.3343 18.4972 25.1383 18.4972 24.9205ZM18.9432 24.6562V24.9205C18.9432 25.1345 18.9953 25.3172 19.0994 25.4688C19.2055 25.6184 19.3636 25.6932 19.5739 25.6932C19.7784 25.6932 19.9328 25.6184 20.0369 25.4688C20.1411 25.3172 20.1932 25.1345 20.1932 24.9205V24.6562C20.1932 24.4422 20.142 24.2604 20.0398 24.1108C19.9375 23.9593 19.7822 23.8835 19.5739 23.8835C19.3674 23.8835 19.2102 23.9593 19.1023 24.1108C18.9962 24.2604 18.9432 24.4422 18.9432 24.6562ZM15.5653 21.5256V21.2614C15.5653 21.0436 15.6089 20.8475 15.696 20.6733C15.7831 20.4991 15.9072 20.3608 16.0682 20.2585C16.2292 20.1544 16.4205 20.1023 16.642 20.1023C16.8655 20.1023 17.0568 20.1544 17.2159 20.2585C17.375 20.3608 17.4972 20.4991 17.5824 20.6733C17.6676 20.8475 17.7102 21.0436 17.7102 21.2614V21.5256C17.7102 21.7434 17.6667 21.9403 17.5795 22.1165C17.4943 22.2907 17.3722 22.429 17.2131 22.5312C17.054 22.6335 16.8636 22.6847 16.642 22.6847C16.4167 22.6847 16.2235 22.6335 16.0625 22.5312C15.9034 22.429 15.7803 22.2907 15.6932 22.1165C15.608 21.9403 15.5653 21.7434 15.5653 21.5256ZM16.0114 21.2614V21.5256C16.0114 21.7396 16.0634 21.9223 16.1676 22.0739C16.2737 22.2235 16.4318 22.2983 16.642 22.2983C16.8466 22.2983 17.0009 22.2235 17.1051 22.0739C17.2093 21.9223 17.2614 21.7396 17.2614 21.5256V21.2614C17.2614 21.0473 17.2102 20.8655 17.108 20.7159C17.0057 20.5644 16.8504 20.4886 16.642 20.4886C16.4356 20.4886 16.2784 20.5644 16.1705 20.7159C16.0644 20.8655 16.0114 21.0473 16.0114 21.2614ZM15.8267 26L19.8239 20.1818H20.3267L16.3295 26H15.8267Z" fill="black"/>
<path d="M54.6477 26V25.6108L56.5483 23.4744C56.7964 23.1941 56.9962 22.9545 57.1477 22.7557C57.2992 22.5568 57.4091 22.3731 57.4773 22.2045C57.5473 22.036 57.5824 21.8608 57.5824 21.679C57.5824 21.4574 57.5303 21.2642 57.4261 21.0994C57.3239 20.9328 57.1828 20.803 57.0028 20.7102C56.8229 20.6174 56.6203 20.571 56.3949 20.571C56.1563 20.571 55.947 20.6222 55.767 20.7244C55.589 20.8267 55.4508 20.9669 55.3523 21.1449C55.2538 21.3229 55.2045 21.5275 55.2045 21.7585H54.696C54.696 21.4366 54.7699 21.1515 54.9176 20.9034C55.0672 20.6534 55.2708 20.4574 55.5284 20.3153C55.7879 20.1733 56.0814 20.1023 56.4091 20.1023C56.733 20.1023 57.0208 20.1723 57.2727 20.3125C57.5246 20.4508 57.7225 20.6392 57.8665 20.8778C58.0104 21.1165 58.0824 21.3835 58.0824 21.679C58.0824 21.893 58.0445 22.1004 57.9688 22.3011C57.8949 22.5019 57.767 22.7254 57.5852 22.9716C57.4034 23.2178 57.1515 23.5189 56.8295 23.875L55.3864 25.4858V25.5227H58.2642V26H54.6477ZM61.3374 26.0795C60.9283 26.0795 60.5788 25.9621 60.2891 25.7273C60.0012 25.4905 59.7796 25.1487 59.6243 24.7017C59.4709 24.2547 59.3942 23.7178 59.3942 23.0909C59.3942 22.4659 59.4709 21.9309 59.6243 21.4858C59.7796 21.0388 60.0021 20.697 60.2919 20.4602C60.5836 20.2216 60.9321 20.1023 61.3374 20.1023C61.7427 20.1023 62.0902 20.2216 62.38 20.4602C62.6716 20.697 62.8942 21.0388 63.0476 21.4858C63.2029 21.9309 63.2805 22.4659 63.2805 23.0909C63.2805 23.7178 63.2029 24.2547 63.0476 24.7017C62.8942 25.1487 62.6726 25.4905 62.3828 25.7273C62.0949 25.9621 61.7464 26.0795 61.3374 26.0795ZM61.3374 25.6023C61.7862 25.6023 62.1366 25.3835 62.3885 24.946C62.6404 24.5066 62.7663 23.8883 62.7663 23.0909C62.7663 22.5606 62.7086 22.108 62.593 21.733C62.4794 21.3561 62.3156 21.0682 62.1016 20.8693C61.8894 20.6705 61.6347 20.571 61.3374 20.571C60.8923 20.571 60.5429 20.7926 60.2891 21.2358C60.0353 21.6771 59.9084 22.2955 59.9084 23.0909C59.9084 23.6212 59.9652 24.0739 60.0788 24.4489C60.1944 24.8239 60.3582 25.1098 60.5703 25.3068C60.7843 25.5038 61.04 25.6023 61.3374 25.6023ZM67.38 24.9205V24.6562C67.38 24.4384 67.4235 24.2424 67.5107 24.0682C67.5978 23.892 67.7218 23.7528 67.8828 23.6506C68.0438 23.5483 68.2351 23.4972 68.4567 23.4972C68.6802 23.4972 68.8714 23.5483 69.0305 23.6506C69.1896 23.7528 69.3118 23.892 69.397 24.0682C69.4822 24.2424 69.5249 24.4384 69.5249 24.6562V24.9205C69.5249 25.1383 69.4813 25.3343 69.3942 25.5085C69.3089 25.6828 69.1868 25.822 69.0277 25.9261C68.8686 26.0284 68.6783 26.0795 68.4567 26.0795C68.2313 26.0795 68.0381 26.0284 67.8771 25.9261C67.718 25.822 67.5949 25.6828 67.5078 25.5085C67.4226 25.3343 67.38 25.1383 67.38 24.9205ZM67.826 24.6562V24.9205C67.826 25.1345 67.8781 25.3172 67.9822 25.4688C68.0883 25.6184 68.2464 25.6932 68.4567 25.6932C68.6612 25.6932 68.8156 25.6184 68.9197 25.4688C69.0239 25.3172 69.076 25.1345 69.076 24.9205V24.6562C69.076 24.4422 69.0249 24.2604 68.9226 24.1108C68.8203 23.9593 68.665 23.8835 68.4567 23.8835C68.2502 23.8835 68.093 23.9593 67.9851 24.1108C67.879 24.2604 67.826 24.4422 67.826 24.6562ZM64.4482 21.5256V21.2614C64.4482 21.0436 64.4917 20.8475 64.5788 20.6733C64.666 20.4991 64.79 20.3608 64.951 20.2585C65.112 20.1544 65.3033 20.1023 65.5249 20.1023C65.7483 20.1023 65.9396 20.1544 66.0987 20.2585C66.2578 20.3608 66.38 20.4991 66.4652 20.6733C66.5504 20.8475 66.593 21.0436 66.593 21.2614V21.5256C66.593 21.7434 66.5495 21.9403 66.4624 22.1165C66.3771 22.2907 66.255 22.429 66.0959 22.5312C65.9368 22.6335 65.7464 22.6847 65.5249 22.6847C65.2995 22.6847 65.1063 22.6335 64.9453 22.5312C64.7862 22.429 64.6631 22.2907 64.576 22.1165C64.4908 21.9403 64.4482 21.7434 64.4482 21.5256ZM64.8942 21.2614V21.5256C64.8942 21.7396 64.9463 21.9223 65.0504 22.0739C65.1565 22.2235 65.3146 22.2983 65.5249 22.2983C65.7294 22.2983 65.8838 22.2235 65.9879 22.0739C66.0921 21.9223 66.1442 21.7396 66.1442 21.5256V21.2614C66.1442 21.0473 66.093 20.8655 65.9908 20.7159C65.8885 20.5644 65.7332 20.4886 65.5249 20.4886C65.3184 20.4886 65.1612 20.5644 65.0533 20.7159C64.9472 20.8655 64.8942 21.0473 64.8942 21.2614ZM64.7095 26L68.7067 20.1818H69.2095L65.2124 26H64.7095Z" fill="black"/>
<path d="M98.5085 24.75V24.3182L101.102 20.1818H101.42V20.9062H101.185L99.1023 24.2358V24.2727H102.503V24.75H98.5085ZM101.224 26V24.6136V24.4148V20.1818H101.73V26H101.224ZM105.462 26.0795C105.053 26.0795 104.704 25.9621 104.414 25.7273C104.126 25.4905 103.905 25.1487 103.749 24.7017C103.596 24.2547 103.519 23.7178 103.519 23.0909C103.519 22.4659 103.596 21.9309 103.749 21.4858C103.905 21.0388 104.127 20.697 104.417 20.4602C104.709 20.2216 105.057 20.1023 105.462 20.1023C105.868 20.1023 106.215 20.2216 106.505 20.4602C106.797 20.697 107.019 21.0388 107.173 21.4858C107.328 21.9309 107.406 22.4659 107.406 23.0909C107.406 23.7178 107.328 24.2547 107.173 24.7017C107.019 25.1487 106.798 25.4905 106.508 25.7273C106.22 25.9621 105.871 26.0795 105.462 26.0795ZM105.462 25.6023C105.911 25.6023 106.262 25.3835 106.513 24.946C106.765 24.5066 106.891 23.8883 106.891 23.0909C106.891 22.5606 106.834 22.108 106.718 21.733C106.604 21.3561 106.441 21.0682 106.227 20.8693C106.014 20.6705 105.76 20.571 105.462 20.571C105.017 20.571 104.668 20.7926 104.414 21.2358C104.16 21.6771 104.033 22.2955 104.033 23.0909C104.033 23.6212 104.09 24.0739 104.204 24.4489C104.319 24.8239 104.483 25.1098 104.695 25.3068C104.909 25.5038 105.165 25.6023 105.462 25.6023ZM111.505 24.9205V24.6562C111.505 24.4384 111.549 24.2424 111.636 24.0682C111.723 23.892 111.847 23.7528 112.008 23.6506C112.169 23.5483 112.36 23.4972 112.582 23.4972C112.805 23.4972 112.996 23.5483 113.156 23.6506C113.315 23.7528 113.437 23.892 113.522 24.0682C113.607 24.2424 113.65 24.4384 113.65 24.6562V24.9205C113.65 25.1383 113.606 25.3343 113.519 25.5085C113.434 25.6828 113.312 25.822 113.153 25.9261C112.994 26.0284 112.803 26.0795 112.582 26.0795C112.356 26.0795 112.163 26.0284 112.002 25.9261C111.843 25.822 111.72 25.6828 111.633 25.5085C111.548 25.3343 111.505 25.1383 111.505 24.9205ZM111.951 24.6562V24.9205C111.951 25.1345 112.003 25.3172 112.107 25.4688C112.213 25.6184 112.371 25.6932 112.582 25.6932C112.786 25.6932 112.941 25.6184 113.045 25.4688C113.149 25.3172 113.201 25.1345 113.201 24.9205V24.6562C113.201 24.4422 113.15 24.2604 113.048 24.1108C112.945 23.9593 112.79 23.8835 112.582 23.8835C112.375 23.8835 112.218 23.9593 112.11 24.1108C112.004 24.2604 111.951 24.4422 111.951 24.6562ZM108.573 21.5256V21.2614C108.573 21.0436 108.617 20.8475 108.704 20.6733C108.791 20.4991 108.915 20.3608 109.076 20.2585C109.237 20.1544 109.428 20.1023 109.65 20.1023C109.873 20.1023 110.065 20.1544 110.224 20.2585C110.383 20.3608 110.505 20.4991 110.59 20.6733C110.675 20.8475 110.718 21.0436 110.718 21.2614V21.5256C110.718 21.7434 110.674 21.9403 110.587 22.1165C110.502 22.2907 110.38 22.429 110.221 22.5312C110.062 22.6335 109.871 22.6847 109.65 22.6847C109.424 22.6847 109.231 22.6335 109.07 22.5312C108.911 22.429 108.788 22.2907 108.701 22.1165C108.616 21.9403 108.573 21.7434 108.573 21.5256ZM109.019 21.2614V21.5256C109.019 21.7396 109.071 21.9223 109.175 22.0739C109.281 22.2235 109.44 22.2983 109.65 22.2983C109.854 22.2983 110.009 22.2235 110.113 22.0739C110.217 21.9223 110.269 21.7396 110.269 21.5256V21.2614C110.269 21.0473 110.218 20.8655 110.116 20.7159C110.013 20.5644 109.858 20.4886 109.65 20.4886C109.443 20.4886 109.286 20.5644 109.178 20.7159C109.072 20.8655 109.019 21.0473 109.019 21.2614ZM108.835 26L112.832 20.1818H113.335L109.337 26H108.835Z" fill="black"/>
<path d="M146.48 26.0795C146.24 26.0777 146.005 26.0294 145.776 25.9347C145.546 25.8381 145.34 25.6837 145.156 25.4716C144.973 25.2576 144.827 24.9754 144.719 24.625C144.611 24.2746 144.557 23.8437 144.557 23.3324C144.557 22.8589 144.598 22.4252 144.682 22.0312C144.765 21.6373 144.89 21.2964 145.057 21.0085C145.223 20.7206 145.432 20.4981 145.682 20.3409C145.932 20.1818 146.224 20.1023 146.56 20.1023C146.874 20.1023 147.152 20.1676 147.392 20.2983C147.633 20.4271 147.828 20.607 147.977 20.8381C148.127 21.0691 148.221 21.3352 148.259 21.6364H147.736C147.683 21.3295 147.557 21.0767 147.358 20.8778C147.159 20.679 146.893 20.5795 146.56 20.5795C146.082 20.5795 145.713 20.8011 145.452 21.2443C145.19 21.6856 145.059 22.3125 145.057 23.125H145.094C145.187 22.9527 145.306 22.804 145.452 22.679C145.599 22.5521 145.767 22.4536 145.955 22.3835C146.142 22.3116 146.339 22.2756 146.545 22.2756C146.869 22.2756 147.166 22.358 147.435 22.5227C147.704 22.6856 147.919 22.91 148.08 23.196C148.241 23.4801 148.321 23.8049 148.321 24.1705C148.321 24.517 148.244 24.8362 148.091 25.1278C147.939 25.4195 147.725 25.6515 147.449 25.8239C147.174 25.9962 146.851 26.0814 146.48 26.0795ZM146.48 25.6023C146.734 25.6023 146.96 25.5379 147.159 25.4091C147.36 25.2803 147.518 25.108 147.634 24.892C147.749 24.6742 147.807 24.4337 147.807 24.1705C147.807 23.9072 147.749 23.6686 147.634 23.4545C147.518 23.2405 147.36 23.0701 147.159 22.9432C146.96 22.8163 146.734 22.7528 146.48 22.7528C146.287 22.7528 146.107 22.7926 145.94 22.8722C145.774 22.9498 145.629 23.0568 145.506 23.1932C145.384 23.3277 145.292 23.482 145.227 23.6562C145.165 23.8305 145.141 24.0133 145.156 24.2045C145.177 24.4716 145.246 24.7112 145.364 24.9233C145.483 25.1335 145.638 25.2992 145.83 25.4205C146.023 25.5417 146.24 25.6023 146.48 25.6023ZM151.33 26.0795C150.92 26.0795 150.571 25.9621 150.281 25.7273C149.993 25.4905 149.772 25.1487 149.616 24.7017C149.463 24.2547 149.386 23.7178 149.386 23.0909C149.386 22.4659 149.463 21.9309 149.616 21.4858C149.772 21.0388 149.994 20.697 150.284 20.4602C150.576 20.2216 150.924 20.1023 151.33 20.1023C151.735 20.1023 152.082 20.2216 152.372 20.4602C152.664 20.697 152.886 21.0388 153.04 21.4858C153.195 21.9309 153.273 22.4659 153.273 23.0909C153.273 23.7178 153.195 24.2547 153.04 24.7017C152.886 25.1487 152.665 25.4905 152.375 25.7273C152.087 25.9621 151.739 26.0795 151.33 26.0795ZM151.33 25.6023C151.778 25.6023 152.129 25.3835 152.381 24.946C152.633 24.5066 152.759 23.8883 152.759 23.0909C152.759 22.5606 152.701 22.108 152.585 21.733C152.472 21.3561 152.308 21.0682 152.094 20.8693C151.882 20.6705 151.627 20.571 151.33 20.571C150.884 20.571 150.535 20.7926 150.281 21.2358C150.027 21.6771 149.901 22.2955 149.901 23.0909C149.901 23.6212 149.957 24.0739 150.071 24.4489C150.187 24.8239 150.35 25.1098 150.562 25.3068C150.777 25.5038 151.032 25.6023 151.33 25.6023ZM157.372 24.9205V24.6562C157.372 24.4384 157.416 24.2424 157.503 24.0682C157.59 23.892 157.714 23.7528 157.875 23.6506C158.036 23.5483 158.227 23.4972 158.449 23.4972C158.672 23.4972 158.864 23.5483 159.023 23.6506C159.182 23.7528 159.304 23.892 159.389 24.0682C159.474 24.2424 159.517 24.4384 159.517 24.6562V24.9205C159.517 25.1383 159.473 25.3343 159.386 25.5085C159.301 25.6828 159.179 25.822 159.02 25.9261C158.861 26.0284 158.67 26.0795 158.449 26.0795C158.223 26.0795 158.03 26.0284 157.869 25.9261C157.71 25.822 157.587 25.6828 157.5 25.5085C157.415 25.3343 157.372 25.1383 157.372 24.9205ZM157.818 24.6562V24.9205C157.818 25.1345 157.87 25.3172 157.974 25.4688C158.08 25.6184 158.239 25.6932 158.449 25.6932C158.653 25.6932 158.808 25.6184 158.912 25.4688C159.016 25.3172 159.068 25.1345 159.068 24.9205V24.6562C159.068 24.4422 159.017 24.2604 158.915 24.1108C158.813 23.9593 158.657 23.8835 158.449 23.8835C158.242 23.8835 158.085 23.9593 157.977 24.1108C157.871 24.2604 157.818 24.4422 157.818 24.6562ZM154.44 21.5256V21.2614C154.44 21.0436 154.484 20.8475 154.571 20.6733C154.658 20.4991 154.782 20.3608 154.943 20.2585C155.104 20.1544 155.295 20.1023 155.517 20.1023C155.741 20.1023 155.932 20.1544 156.091 20.2585C156.25 20.3608 156.372 20.4991 156.457 20.6733C156.543 20.8475 156.585 21.0436 156.585 21.2614V21.5256C156.585 21.7434 156.542 21.9403 156.455 22.1165C156.369 22.2907 156.247 22.429 156.088 22.5312C155.929 22.6335 155.739 22.6847 155.517 22.6847C155.292 22.6847 155.098 22.6335 154.938 22.5312C154.778 22.429 154.655 22.2907 154.568 22.1165C154.483 21.9403 154.44 21.7434 154.44 21.5256ZM154.886 21.2614V21.5256C154.886 21.7396 154.938 21.9223 155.043 22.0739C155.149 22.2235 155.307 22.2983 155.517 22.2983C155.722 22.2983 155.876 22.2235 155.98 22.0739C156.084 21.9223 156.136 21.7396 156.136 21.5256V21.2614C156.136 21.0473 156.085 20.8655 155.983 20.7159C155.881 20.5644 155.725 20.4886 155.517 20.4886C155.311 20.4886 155.153 20.5644 155.045 20.7159C154.939 20.8655 154.886 21.0473 154.886 21.2614ZM154.702 26L158.699 20.1818H159.202L155.205 26H154.702Z" fill="black"/>
<path d="M191.446 26.0795C191.075 26.0795 190.744 26.0095 190.455 25.8693C190.165 25.7292 189.938 25.5379 189.773 25.2955C189.608 25.0511 189.526 24.7756 189.526 24.4688C189.526 24.2282 189.576 24.0038 189.676 23.7955C189.777 23.5852 189.915 23.4091 190.091 23.267C190.267 23.1231 190.465 23.0294 190.685 22.9858V22.9545C190.399 22.8712 190.169 22.7074 189.994 22.4631C189.82 22.2169 189.734 21.9375 189.736 21.625C189.734 21.3352 189.808 21.0758 189.957 20.8466C190.107 20.6174 190.311 20.4366 190.568 20.304C190.828 20.1695 191.12 20.1023 191.446 20.1023C191.77 20.1023 192.061 20.1695 192.318 20.304C192.576 20.4366 192.779 20.6174 192.929 20.8466C193.08 21.0758 193.157 21.3352 193.159 21.625C193.157 21.9356 193.069 22.215 192.895 22.4631C192.721 22.7093 192.491 22.8731 192.207 22.9545V22.9858C192.427 23.0275 192.624 23.1203 192.798 23.2642C192.973 23.4081 193.111 23.5852 193.213 23.7955C193.315 24.0038 193.366 24.2282 193.366 24.4688C193.366 24.7756 193.283 25.0511 193.116 25.2955C192.952 25.5379 192.724 25.7292 192.435 25.8693C192.147 26.0095 191.817 26.0795 191.446 26.0795ZM191.446 25.6023C191.723 25.6023 191.965 25.553 192.173 25.4545C192.384 25.3542 192.547 25.2169 192.665 25.0426C192.784 24.8684 192.844 24.6686 192.844 24.4432C192.844 24.2102 192.782 24.0028 192.659 23.821C192.536 23.6373 192.369 23.4924 192.159 23.3864C191.949 23.2784 191.711 23.2244 191.446 23.2244C191.181 23.2244 190.942 23.2784 190.73 23.3864C190.52 23.4924 190.353 23.6373 190.23 23.821C190.109 24.0028 190.048 24.2102 190.048 24.4432C190.048 24.6686 190.106 24.8684 190.222 25.0426C190.339 25.2169 190.503 25.3542 190.713 25.4545C190.925 25.553 191.17 25.6023 191.446 25.6023ZM191.446 22.7699C191.673 22.7699 191.877 22.7216 192.057 22.625C192.237 22.5284 192.379 22.3968 192.483 22.2301C192.589 22.0616 192.643 21.8703 192.645 21.6562C192.643 21.4441 192.59 21.2566 192.486 21.0938C192.382 20.929 192.24 20.8011 192.06 20.7102C191.882 20.6174 191.677 20.571 191.446 20.571C191.215 20.571 191.009 20.6174 190.827 20.7102C190.647 20.8011 190.505 20.929 190.401 21.0938C190.298 21.2566 190.248 21.4441 190.25 21.6562C190.248 21.8703 190.299 22.0616 190.403 22.2301C190.509 22.3968 190.652 22.5284 190.832 22.625C191.014 22.7216 191.219 22.7699 191.446 22.7699ZM196.353 26.0795C195.944 26.0795 195.594 25.9621 195.305 25.7273C195.017 25.4905 194.795 25.1487 194.64 24.7017C194.487 24.2547 194.41 23.7178 194.41 23.0909C194.41 22.4659 194.487 21.9309 194.64 21.4858C194.795 21.0388 195.018 20.697 195.308 20.4602C195.599 20.2216 195.948 20.1023 196.353 20.1023C196.758 20.1023 197.106 20.2216 197.396 20.4602C197.687 20.697 197.91 21.0388 198.063 21.4858C198.219 21.9309 198.296 22.4659 198.296 23.0909C198.296 23.7178 198.219 24.2547 198.063 24.7017C197.91 25.1487 197.688 25.4905 197.398 25.7273C197.111 25.9621 196.762 26.0795 196.353 26.0795ZM196.353 25.6023C196.802 25.6023 197.152 25.3835 197.404 24.946C197.656 24.5066 197.782 23.8883 197.782 23.0909C197.782 22.5606 197.724 22.108 197.609 21.733C197.495 21.3561 197.331 21.0682 197.117 20.8693C196.905 20.6705 196.65 20.571 196.353 20.571C195.908 20.571 195.558 20.7926 195.305 21.2358C195.051 21.6771 194.924 22.2955 194.924 23.0909C194.924 23.6212 194.981 24.0739 195.094 24.4489C195.21 24.8239 195.374 25.1098 195.586 25.3068C195.8 25.5038 196.056 25.6023 196.353 25.6023ZM202.396 24.9205V24.6562C202.396 24.4384 202.439 24.2424 202.526 24.0682C202.613 23.892 202.737 23.7528 202.898 23.6506C203.059 23.5483 203.251 23.4972 203.472 23.4972C203.696 23.4972 203.887 23.5483 204.046 23.6506C204.205 23.7528 204.327 23.892 204.413 24.0682C204.498 24.2424 204.54 24.4384 204.54 24.6562V24.9205C204.54 25.1383 204.497 25.3343 204.41 25.5085C204.325 25.6828 204.202 25.822 204.043 25.9261C203.884 26.0284 203.694 26.0795 203.472 26.0795C203.247 26.0795 203.054 26.0284 202.893 25.9261C202.734 25.822 202.611 25.6828 202.523 25.5085C202.438 25.3343 202.396 25.1383 202.396 24.9205ZM202.842 24.6562V24.9205C202.842 25.1345 202.894 25.3172 202.998 25.4688C203.104 25.6184 203.262 25.6932 203.472 25.6932C203.677 25.6932 203.831 25.6184 203.935 25.4688C204.04 25.3172 204.092 25.1345 204.092 24.9205V24.6562C204.092 24.4422 204.04 24.2604 203.938 24.1108C203.836 23.9593 203.681 23.8835 203.472 23.8835C203.266 23.8835 203.109 23.9593 203.001 24.1108C202.895 24.2604 202.842 24.4422 202.842 24.6562ZM199.464 21.5256V21.2614C199.464 21.0436 199.507 20.8475 199.594 20.6733C199.682 20.4991 199.806 20.3608 199.967 20.2585C200.128 20.1544 200.319 20.1023 200.54 20.1023C200.764 20.1023 200.955 20.1544 201.114 20.2585C201.273 20.3608 201.396 20.4991 201.481 20.6733C201.566 20.8475 201.609 21.0436 201.609 21.2614V21.5256C201.609 21.7434 201.565 21.9403 201.478 22.1165C201.393 22.2907 201.271 22.429 201.112 22.5312C200.952 22.6335 200.762 22.6847 200.54 22.6847C200.315 22.6847 200.122 22.6335 199.961 22.5312C199.802 22.429 199.679 22.2907 199.592 22.1165C199.506 21.9403 199.464 21.7434 199.464 21.5256ZM199.91 21.2614V21.5256C199.91 21.7396 199.962 21.9223 200.066 22.0739C200.172 22.2235 200.33 22.2983 200.54 22.2983C200.745 22.2983 200.899 22.2235 201.004 22.0739C201.108 21.9223 201.16 21.7396 201.16 21.5256V21.2614C201.16 21.0473 201.109 20.8655 201.006 20.7159C200.904 20.5644 200.749 20.4886 200.54 20.4886C200.334 20.4886 200.177 20.5644 200.069 20.7159C199.963 20.8655 199.91 21.0473 199.91 21.2614ZM199.725 26L203.722 20.1818H204.225L200.228 26H199.725Z" fill="black"/>
<path d="M236.443 20.1818V26H235.912V20.7386H235.878L234.514 21.6449V21.0938L235.889 20.1818H236.443ZM240.017 26.0795C239.608 26.0795 239.259 25.9621 238.969 25.7273C238.681 25.4905 238.459 25.1487 238.304 24.7017C238.151 24.2547 238.074 23.7178 238.074 23.0909C238.074 22.4659 238.151 21.9309 238.304 21.4858C238.459 21.0388 238.682 20.697 238.972 20.4602C239.263 20.2216 239.612 20.1023 240.017 20.1023C240.422 20.1023 240.77 20.2216 241.06 20.4602C241.351 20.697 241.574 21.0388 241.727 21.4858C241.883 21.9309 241.96 22.4659 241.96 23.0909C241.96 23.7178 241.883 24.2547 241.727 24.7017C241.574 25.1487 241.352 25.4905 241.062 25.7273C240.775 25.9621 240.426 26.0795 240.017 26.0795ZM240.017 25.6023C240.466 25.6023 240.816 25.3835 241.068 24.946C241.32 24.5066 241.446 23.8883 241.446 23.0909C241.446 22.5606 241.388 22.108 241.273 21.733C241.159 21.3561 240.995 21.0682 240.781 20.8693C240.569 20.6705 240.314 20.571 240.017 20.571C239.572 20.571 239.223 20.7926 238.969 21.2358C238.715 21.6771 238.588 22.2955 238.588 23.0909C238.588 23.6212 238.645 24.0739 238.759 24.4489C238.874 24.8239 239.038 25.1098 239.25 25.3068C239.464 25.5038 239.72 25.6023 240.017 25.6023ZM244.923 26.0795C244.514 26.0795 244.165 25.9621 243.875 25.7273C243.587 25.4905 243.366 25.1487 243.21 24.7017C243.057 24.2547 242.98 23.7178 242.98 23.0909C242.98 22.4659 243.057 21.9309 243.21 21.4858C243.366 21.0388 243.588 20.697 243.878 20.4602C244.17 20.2216 244.518 20.1023 244.923 20.1023C245.329 20.1023 245.676 20.2216 245.966 20.4602C246.258 20.697 246.48 21.0388 246.634 21.4858C246.789 21.9309 246.866 22.4659 246.866 23.0909C246.866 23.7178 246.789 24.2547 246.634 24.7017C246.48 25.1487 246.259 25.4905 245.969 25.7273C245.681 25.9621 245.332 26.0795 244.923 26.0795ZM244.923 25.6023C245.372 25.6023 245.723 25.3835 245.974 24.946C246.226 24.5066 246.352 23.8883 246.352 23.0909C246.352 22.5606 246.295 22.108 246.179 21.733C246.065 21.3561 245.902 21.0682 245.688 20.8693C245.475 20.6705 245.221 20.571 244.923 20.571C244.478 20.571 244.129 20.7926 243.875 21.2358C243.621 21.6771 243.494 22.2955 243.494 23.0909C243.494 23.6212 243.551 24.0739 243.665 24.4489C243.78 24.8239 243.944 25.1098 244.156 25.3068C244.37 25.5038 244.626 25.6023 244.923 25.6023ZM250.966 24.9205V24.6562C250.966 24.4384 251.009 24.2424 251.097 24.0682C251.184 23.892 251.308 23.7528 251.469 23.6506C251.63 23.5483 251.821 23.4972 252.043 23.4972C252.266 23.4972 252.457 23.5483 252.616 23.6506C252.776 23.7528 252.898 23.892 252.983 24.0682C253.068 24.2424 253.111 24.4384 253.111 24.6562V24.9205C253.111 25.1383 253.067 25.3343 252.98 25.5085C252.895 25.6828 252.773 25.822 252.614 25.9261C252.455 26.0284 252.264 26.0795 252.043 26.0795C251.817 26.0795 251.624 26.0284 251.463 25.9261C251.304 25.822 251.181 25.6828 251.094 25.5085C251.009 25.3343 250.966 25.1383 250.966 24.9205ZM251.412 24.6562V24.9205C251.412 25.1345 251.464 25.3172 251.568 25.4688C251.674 25.6184 251.832 25.6932 252.043 25.6932C252.247 25.6932 252.402 25.6184 252.506 25.4688C252.61 25.3172 252.662 25.1345 252.662 24.9205V24.6562C252.662 24.4422 252.611 24.2604 252.509 24.1108C252.406 23.9593 252.251 23.8835 252.043 23.8835C251.836 23.8835 251.679 23.9593 251.571 24.1108C251.465 24.2604 251.412 24.4422 251.412 24.6562ZM248.034 21.5256V21.2614C248.034 21.0436 248.078 20.8475 248.165 20.6733C248.252 20.4991 248.376 20.3608 248.537 20.2585C248.698 20.1544 248.889 20.1023 249.111 20.1023C249.334 20.1023 249.526 20.1544 249.685 20.2585C249.844 20.3608 249.966 20.4991 250.051 20.6733C250.136 20.8475 250.179 21.0436 250.179 21.2614V21.5256C250.179 21.7434 250.135 21.9403 250.048 22.1165C249.963 22.2907 249.841 22.429 249.682 22.5312C249.523 22.6335 249.332 22.6847 249.111 22.6847C248.885 22.6847 248.692 22.6335 248.531 22.5312C248.372 22.429 248.249 22.2907 248.162 22.1165C248.077 21.9403 248.034 21.7434 248.034 21.5256ZM248.48 21.2614V21.5256C248.48 21.7396 248.532 21.9223 248.636 22.0739C248.742 22.2235 248.901 22.2983 249.111 22.2983C249.315 22.2983 249.47 22.2235 249.574 22.0739C249.678 21.9223 249.73 21.7396 249.73 21.5256V21.2614C249.73 21.0473 249.679 20.8655 249.577 20.7159C249.474 20.5644 249.319 20.4886 249.111 20.4886C248.904 20.4886 248.747 20.5644 248.639 20.7159C248.533 20.8655 248.48 21.0473 248.48 21.2614ZM248.295 26L252.293 20.1818H252.795L248.798 26H248.295Z" fill="black"/>
<path d="M4.84229 8.5C4.84229 5.46243 7.30472 3 10.3423 3H59.9999V14H10.3423C7.30472 14 4.84229 11.5376 4.84229 8.5V8.5Z" fill="#EC9494"/>
<path d="M60.5 15L59.5575 14.0649C56.21 10.7564 54 8.5673 54 5.89646C54 3.70736 55.573 2 57.575 2C58.706 2 59.7915 2.57384 60.5 3.47357C61.2085 2.57384 62.294 2 63.425 2C65.427 2 67 3.70736 67 5.89646C67 8.5673 64.79 10.7564 61.4425 14.0649L60.5 15Z" fill="#DE9191"/>
</svg>
