<svg width="51" height="51" viewBox="0 0 51 51" fill="none" xmlns="http://www.w3.org/2000/svg">
<path d="M0 10C0 4.47715 4.47715 0 10 0H41C46.5228 0 51 4.47715 51 10V41C51 46.5228 46.5228 51 41 51H10C4.47715 51 0 46.5228 0 41V10Z" fill="#C8A1D6"/>
<path d="M14.7564 4.65909V4.18182H18.9751V4.65909H17.1314V10H16.6001V4.65909H14.7564ZM20.6911 10.0994C20.4278 10.0994 20.1873 10.0483 19.9695 9.94602C19.7517 9.84186 19.5784 9.69223 19.4496 9.49716C19.3208 9.30019 19.2564 9.06155 19.2564 8.78125C19.2564 8.56534 19.2971 8.38352 19.3786 8.2358C19.46 8.08807 19.5755 7.96686 19.7251 7.87216C19.8748 7.77746 20.0518 7.70265 20.2564 7.64773C20.4609 7.5928 20.6863 7.55019 20.9325 7.51989C21.1768 7.48958 21.3833 7.46307 21.5518 7.44034C21.7223 7.41761 21.852 7.38163 21.9411 7.33239C22.0301 7.28314 22.0746 7.2036 22.0746 7.09375V6.99148C22.0746 6.69413 21.9856 6.46023 21.8075 6.28977C21.6314 6.11742 21.3776 6.03125 21.0462 6.03125C20.7318 6.03125 20.4751 6.10038 20.2763 6.23864C20.0793 6.37689 19.9411 6.53977 19.8615 6.72727L19.3814 6.55398C19.4799 6.31534 19.6162 6.125 19.7905 5.98295C19.9647 5.83902 20.1598 5.7358 20.3757 5.6733C20.5916 5.6089 20.8104 5.5767 21.032 5.5767C21.1986 5.5767 21.3719 5.59848 21.5518 5.64205C21.7337 5.68561 21.9022 5.76136 22.0575 5.86932C22.2128 5.97538 22.3388 6.12405 22.4354 6.31534C22.532 6.50473 22.5803 6.74527 22.5803 7.03693V10H22.0746V9.30966H22.0433C21.9827 9.43845 21.8928 9.56345 21.7734 9.68466C21.6541 9.80587 21.5045 9.9053 21.3246 9.98295C21.1446 10.0606 20.9335 10.0994 20.6911 10.0994ZM20.7592 9.63636C21.0282 9.63636 21.2611 9.5767 21.4581 9.45739C21.6551 9.33807 21.8066 9.17992 21.9126 8.98295C22.0206 8.78409 22.0746 8.56534 22.0746 8.3267V7.69602C22.0367 7.73201 21.9732 7.7642 21.8842 7.79261C21.7971 7.82102 21.6958 7.84659 21.5803 7.86932C21.4666 7.89015 21.353 7.90814 21.2393 7.9233C21.1257 7.93845 21.0234 7.9517 20.9325 7.96307C20.6863 7.99337 20.4761 8.04072 20.3018 8.10511C20.1276 8.16951 19.9941 8.25852 19.9013 8.37216C19.8085 8.4839 19.7621 8.62784 19.7621 8.80398C19.7621 9.06913 19.8568 9.27462 20.0462 9.42045C20.2356 9.56439 20.4732 9.63636 20.7592 9.63636ZM26.8572 6.59375L26.3942 6.72443C26.3487 6.59375 26.2843 6.47538 26.201 6.36932C26.1177 6.26326 26.0088 6.17898 25.8743 6.11648C25.7417 6.05398 25.5769 6.02273 25.38 6.02273C25.0845 6.02273 24.8421 6.0928 24.6527 6.23295C24.4633 6.37311 24.3686 6.55398 24.3686 6.77557C24.3686 6.96307 24.433 7.11553 24.5618 7.23295C24.6925 7.34848 24.8932 7.44034 25.1641 7.50852L25.8232 7.67045C26.1887 7.75947 26.4624 7.90057 26.6442 8.09375C26.8279 8.28693 26.9197 8.52936 26.9197 8.82102C26.9197 9.06723 26.8516 9.28598 26.7152 9.47727C26.5788 9.66856 26.3885 9.81913 26.1442 9.92898C25.9018 10.0369 25.6205 10.0909 25.3004 10.0909C24.8743 10.0909 24.523 9.99527 24.2464 9.80398C23.9699 9.6108 23.7929 9.33239 23.7152 8.96875L24.201 8.84943C24.2635 9.1089 24.3857 9.30492 24.5675 9.4375C24.7512 9.57008 24.9927 9.63636 25.2919 9.63636C25.6271 9.63636 25.8951 9.56155 26.0959 9.41193C26.2966 9.26042 26.397 9.07102 26.397 8.84375C26.397 8.66761 26.3383 8.51989 26.2209 8.40057C26.1035 8.27936 25.9254 8.19034 25.6868 8.13352L24.9737 7.96307C24.5949 7.87216 24.3146 7.72822 24.1328 7.53125C23.951 7.33428 23.8601 7.08996 23.8601 6.7983C23.8601 6.55777 23.9254 6.34659 24.0561 6.16477C24.1868 5.98106 24.3667 5.83712 24.5959 5.73295C24.825 5.62879 25.0864 5.5767 25.38 5.5767C25.7796 5.5767 26.0987 5.66761 26.3374 5.84943C26.5779 6.02936 26.7512 6.27746 26.8572 6.59375ZM28.4872 8.35227L28.4815 7.69034H28.5952L30.6406 5.63636H31.2798L29.2599 7.65909L29.2145 7.66761L28.4872 8.35227ZM28.027 10V4.18182H28.5327V10H28.027ZM30.7457 10L28.973 7.75852L29.3366 7.40909L31.3935 10H30.7457ZM35.1619 6.59375L34.6989 6.72443C34.6534 6.59375 34.589 6.47538 34.5057 6.36932C34.4223 6.26326 34.3134 6.17898 34.179 6.11648C34.0464 6.05398 33.8816 6.02273 33.6847 6.02273C33.3892 6.02273 33.1468 6.0928 32.9574 6.23295C32.768 6.37311 32.6733 6.55398 32.6733 6.77557C32.6733 6.96307 32.7377 7.11553 32.8665 7.23295C32.9972 7.34848 33.1979 7.44034 33.4688 7.50852L34.1278 7.67045C34.4934 7.75947 34.767 7.90057 34.9489 8.09375C35.1326 8.28693 35.2244 8.52936 35.2244 8.82102C35.2244 9.06723 35.1563 9.28598 35.0199 9.47727C34.8835 9.66856 34.6932 9.81913 34.4489 9.92898C34.2064 10.0369 33.9252 10.0909 33.6051 10.0909C33.179 10.0909 32.8277 9.99527 32.5511 9.80398C32.2746 9.6108 32.0975 9.33239 32.0199 8.96875L32.5057 8.84943C32.5682 9.1089 32.6903 9.30492 32.8722 9.4375C33.0559 9.57008 33.2973 9.63636 33.5966 9.63636C33.9318 9.63636 34.1998 9.56155 34.4006 9.41193C34.6013 9.26042 34.7017 9.07102 34.7017 8.84375C34.7017 8.66761 34.643 8.51989 34.5256 8.40057C34.4081 8.27936 34.2301 8.19034 33.9915 8.13352L33.2784 7.96307C32.8996 7.87216 32.6193 7.72822 32.4375 7.53125C32.2557 7.33428 32.1648 7.08996 32.1648 6.7983C32.1648 6.55777 32.2301 6.34659 32.3608 6.16477C32.4915 5.98106 32.6714 5.83712 32.9006 5.73295C33.1297 5.62879 33.3911 5.5767 33.6847 5.5767C34.0843 5.5767 34.4034 5.66761 34.642 5.84943C34.8826 6.02936 35.0559 6.27746 35.1619 6.59375Z" fill="#474545"/>
</svg>
