<svg width="45" height="45" viewBox="0 0 45 45" fill="none" xmlns="http://www.w3.org/2000/svg">
<path d="M45 22.5C45 34.9264 34.9264 45 22.5 45C10.0736 45 0 34.9264 0 22.5C0 10.0736 10.0736 0 22.5 0C34.9264 0 45 10.0736 45 22.5Z" fill="#F3B8B8"/>
<path d="M34.5884 32.6243L29.0982 27.1322C30.7444 24.9872 31.5129 22.2964 31.2479 19.6056C30.983 16.9148 29.7044 14.4256 27.6715 12.6428C25.6386 10.86 23.0037 9.91726 20.3012 10.0057C17.5988 10.0941 15.0311 11.2072 13.1192 13.1191C11.2072 15.0309 10.0941 17.5984 10.0057 20.3008C9.91726 23.0031 10.8601 25.6379 12.6429 27.6707C14.4258 29.7035 16.9151 30.982 19.606 31.2469C22.2969 31.5119 24.9879 30.7434 27.1329 29.0974L32.6277 34.593C32.7567 34.722 32.9099 34.8244 33.0785 34.8942C33.2471 34.9641 33.4278 35 33.6103 35C33.7928 35 33.9735 34.9641 34.1421 34.8942C34.3107 34.8244 34.4639 34.722 34.593 34.593C34.722 34.464 34.8244 34.3108 34.8942 34.1422C34.9641 33.9736 35 33.7929 35 33.6104C35 33.4279 34.9641 33.2472 34.8942 33.0786C34.8244 32.91 34.722 32.7568 34.593 32.6278L34.5884 32.6243ZM12.7979 20.6585C12.7979 19.1038 13.2589 17.584 14.1227 16.2913C14.9865 14.9986 16.2143 13.9911 17.6507 13.3961C19.0871 12.8011 20.6678 12.6455 22.1927 12.9488C23.7176 13.2521 25.1183 14.0008 26.2177 15.1001C27.3171 16.1995 28.0658 17.6001 28.3692 19.125C28.6725 20.6498 28.5168 22.2304 27.9218 23.6667C27.3268 25.1031 26.3192 26.3308 25.0265 27.1946C23.7337 28.0583 22.2138 28.5194 20.659 28.5194C18.5748 28.5172 16.5765 27.6883 15.1027 26.2146C13.6289 24.7409 12.8 22.7427 12.7979 20.6585Z" fill="black" fill-opacity="0.95"/>
</svg>
