<svg width="45" height="45" viewBox="0 0 45 45" fill="none" xmlns="http://www.w3.org/2000/svg">
<path d="M45 22.5C45 34.9264 34.9264 45 22.5 45C10.0736 45 0 34.9264 0 22.5C0 10.0736 10.0736 0 22.5 0C34.9264 0 45 10.0736 45 22.5Z" fill="#A1BEDF"/>
<path fill-rule="evenodd" clip-rule="evenodd" d="M24.4833 13.5646C24.574 13.7406 24.5969 13.9667 24.6417 14.4188C24.7271 15.2729 24.7698 15.7 24.949 15.9354C25.0606 16.0816 25.2089 16.1956 25.3789 16.2658C25.5489 16.3361 25.7344 16.3601 25.9167 16.3354C26.2083 16.2969 26.5417 16.025 27.2063 15.4813C27.5573 15.1927 27.7333 15.049 27.9219 14.9885C28.162 14.9118 28.4218 14.9248 28.6531 15.025C28.8354 15.1042 28.9969 15.2646 29.3167 15.5854L30.2479 16.5167C30.5688 16.8375 30.7292 16.9979 30.8083 17.1802C30.9086 17.4115 30.9215 17.6713 30.8448 17.9115C30.7844 18.1 30.6406 18.276 30.3531 18.6271C29.8083 19.2927 29.5365 19.625 29.4969 19.9177C29.4725 20.0999 29.4967 20.2853 29.5672 20.4551C29.6376 20.6248 29.7517 20.773 29.8979 20.8844C30.1323 21.0635 30.5604 21.1063 31.4156 21.1917C31.8667 21.2365 32.0927 21.2594 32.2698 21.35C32.4932 21.4658 32.6671 21.6586 32.7594 21.8927C32.8333 22.0771 32.8333 22.3042 32.8333 22.7583V24.075C32.8333 24.5292 32.8333 24.7563 32.7604 24.9396C32.6678 25.1744 32.4931 25.3676 32.2688 25.4833C32.0927 25.574 31.8667 25.5969 31.4146 25.6417C30.5604 25.7271 30.1333 25.7698 29.8979 25.949C29.7517 26.0606 29.6377 26.2089 29.5675 26.3789C29.4972 26.5489 29.4732 26.7344 29.4979 26.9167C29.5375 27.2083 29.8094 27.5417 30.3531 28.2063C30.6406 28.5573 30.7844 28.7323 30.8448 28.9219C30.9215 29.162 30.9086 29.4218 30.8083 29.6531C30.7292 29.8354 30.5688 29.9958 30.2479 30.3167L29.3167 31.2469C28.9958 31.5688 28.8354 31.7292 28.6531 31.8073C28.4218 31.9075 28.162 31.9205 27.9219 31.8438C27.7333 31.7833 27.5573 31.6396 27.2063 31.3521C26.5406 30.8083 26.2083 30.5365 25.9167 30.4979C25.7344 30.4732 25.5489 30.4972 25.3789 30.5675C25.2089 30.6377 25.0606 30.7517 24.949 30.8979C24.7698 31.1323 24.7271 31.5594 24.6417 32.4146C24.5969 32.8667 24.574 33.0927 24.4833 33.2688C24.3679 33.4929 24.1751 33.6676 23.9406 33.7604C23.7563 33.8333 23.5292 33.8333 23.075 33.8333H21.7583C21.3042 33.8333 21.0771 33.8333 20.8938 33.7604C20.6589 33.6678 20.4657 33.4931 20.35 33.2688C20.2594 33.0927 20.2365 32.8667 20.1917 32.4146C20.1063 31.5604 20.0635 31.1333 19.8844 30.8979C19.7728 30.7519 19.6247 30.638 19.4549 30.5678C19.2851 30.4975 19.0998 30.4734 18.9177 30.4979C18.625 30.5365 18.2927 30.8083 17.6271 31.3521C17.276 31.6406 17.1 31.7844 16.9115 31.8448C16.6713 31.9215 16.4115 31.9086 16.1802 31.8083C15.9979 31.7292 15.8365 31.5688 15.5167 31.2479L14.5854 30.3167C14.2646 29.9958 14.1042 29.8354 14.025 29.6531C13.9248 29.4218 13.9118 29.162 13.9885 28.9219C14.049 28.7333 14.1927 28.5573 14.4802 28.2063C15.025 27.5406 15.2969 27.2083 15.3354 26.9156C15.3599 26.7335 15.3358 26.5482 15.2656 26.3784C15.1953 26.2087 15.0814 26.0605 14.9354 25.949C14.701 25.7698 14.2729 25.7271 13.4177 25.6417C12.9667 25.5969 12.7406 25.574 12.5635 25.4833C12.3402 25.3675 12.1662 25.1747 12.074 24.9406C12 24.7563 12 24.5292 12 24.075V22.7583C12 22.3042 12 22.0771 12.0729 21.8938C12.1655 21.6589 12.3402 21.4657 12.5646 21.35C12.7406 21.2594 12.9667 21.2365 13.4188 21.1917C14.2729 21.1063 14.701 21.0635 14.9354 20.8844C15.0816 20.773 15.1957 20.6248 15.2661 20.4551C15.3366 20.2853 15.3608 20.0999 15.3365 19.9177C15.2969 19.625 15.024 19.2927 14.4802 18.626C14.1927 18.275 14.049 18.1 13.9885 17.9104C13.9118 17.6703 13.9248 17.4105 14.025 17.1792C14.1042 16.9979 14.2646 16.8365 14.5854 16.5156L15.5167 15.5854C15.8375 15.2646 15.9979 15.1031 16.1802 15.025C16.4115 14.9248 16.6713 14.9118 16.9115 14.9885C17.1 15.049 17.276 15.1927 17.6271 15.4802C18.2927 16.024 18.625 16.2958 18.9167 16.3354C19.0992 16.3602 19.285 16.3361 19.4552 16.2657C19.6254 16.1952 19.7738 16.0809 19.8854 15.9344C20.0625 15.7 20.1063 15.2729 20.1917 14.4177C20.2365 13.9667 20.2594 13.7406 20.35 13.5635C20.4656 13.3398 20.6584 13.1655 20.8927 13.0729C21.0771 13 21.3042 13 21.7583 13H23.075C23.5292 13 23.7563 13 23.9396 13.0729C24.1744 13.1655 24.3676 13.3402 24.4833 13.5646ZM22.4167 27.5833C23.5217 27.5833 24.5815 27.1443 25.3629 26.3629C26.1443 25.5815 26.5833 24.5217 26.5833 23.4167C26.5833 22.3116 26.1443 21.2518 25.3629 20.4704C24.5815 19.689 23.5217 19.25 22.4167 19.25C21.3116 19.25 20.2518 19.689 19.4704 20.4704C18.689 21.2518 18.25 22.3116 18.25 23.4167C18.25 24.5217 18.689 25.5815 19.4704 26.3629C20.2518 27.1443 21.3116 27.5833 22.4167 27.5833Z" fill="black"/>
</svg>
